<svg width="285" height="147" viewBox="0 0 285 147" xmlns="http://www.w3.org/2000/svg"><g fill-rule="nonzero" fill="none"><path d="M0 .6V118h.8a27.6 27.6 0 0127.6 27.7v.3H285V.6H0z" fill="#FA6942"/><g fill="#FFF" font-family="Helvetica"><text font-size="20" transform="translate(39.4 46.5)"><tspan x="0" y="19">1000+</tspan></text><text font-size="16" transform="translate(39.4 46.5)"><tspan x="0" y="47">DOGS PLACED</tspan></text></g><path d="M243.1 104.5c-2.3 0-4-.5-5.1-1.5-4.3-3.7-10.4-4.3-14.6-1.4-4.2 2.9-5.8 9-3.8 14.3.5 1.4.4 3.2-.3 5.4-.9 2.7-.3 5.4 1.6 7 2.3 2 6.5 2.3 10.2-.3a9.5 9.5 0 003.5-4.2 8.3 8.3 0 012.4-2.9 7 7 0 013.4-1.2c1.8-.1 3.5-.7 5.1-1.8 3.7-2.6 4.9-6.6 3.8-9.5a6.9 6.9 0 00-6.2-3.9zM212.7 109.1c-1.7-2.4-6.4-5-8.7-3.4-2.3 1.6-1.5 6.8.2 9.3a5.2 5.2 0 007.2 1.3 5 5 0 001.3-7.2zM233.7 85c-2.3 1.6-1.5 6.8.2 9.3a5.2 5.2 0 007.2 1.3 5.2 5.2 0 001.3-7.2c-1.7-2.5-6.4-5-8.7-3.4zM219.6 91.7a5.2 5.2 0 007.2 1.3 5.1 5.1 0 001.3-7.2c-1.7-2.4-6.4-5-8.7-3.4-2.3 1.6-1.5 6.9.2 9.3zM214 102a5.2 5.2 0 001.3-7.2c-1.7-2.4-6.4-5-8.7-3.4-2.3 1.6-1.5 6.8.2 9.3a5.2 5.2 0 007.2 1.3zM251.7 44.8c-2.3 0-4.1-.7-5.2-1.6a12 12 0 00-14.6-1.1c-4.2 2.9-5.8 8.7-3.8 14 .5 1.4.5 3.3-.2 5.5-.9 2.7-.3 5.4 1.6 7 2.3 2 6.5 2.3 10.2-.3a9.5 9.5 0 003.5-4.2c.5-1.1 1.3-2 2.3-2.8 1-.7 2.3-1.2 3.5-1.3 1.8-.1 3.5-.7 5.1-1.8 3.7-2.6 4.9-6.6 3.8-9.5a6.4 6.4 0 00-6.2-3.9zM221.4 49.4c-1.7-2.4-6.4-5-8.7-3.4-2.3 1.6-1.5 6.8.2 9.3a5.2 5.2 0 007.2 1.3 5.3 5.3 0 001.3-7.2zM242.4 25.2c-2.3 1.6-1.5 6.8.2 9.3a5.2 5.2 0 007.2 1.3 5.2 5.2 0 001.3-7.2c-1.8-2.4-6.5-5-8.7-3.4zM228.2 32a5.2 5.2 0 007.2 1.3 5.2 5.2 0 001.3-7.2c-1.7-2.4-6.4-5-8.7-3.4-2.3 1.6-1.5 6.8.2 9.3zM215.4 41a5.2 5.2 0 007.2 1.3 5.2 5.2 0 001.3-7.2c-1.7-2.4-6.4-5-8.7-3.4-2.3 1.6-1.5 6.8.2 9.3z" fill="#FF8C71"/></g></svg>